<svg width="295" height="72" viewBox="0 0 295 72" fill="none" xmlns="http://www.w3.org/2000/svg">
<path d="M14.0322 57.9668H59.2637C53.3932 66.4394 43.6062 72 32.5137 72C14.5563 71.9998 0.00024523 57.4438 0 39.4863C0 28.3939 5.5598 18.6068 14.0322 12.7363V57.9668Z" fill="white"></path>
<path d="M72 57.9668H59.2637C62.8958 52.7182 65.0282 46.3511 65.0283 39.4863C65.0283 21.5285 50.4714 6.97269 32.5137 6.97266C25.6487 6.97273 19.2809 9.10399 14.0322 12.7363V0H72V57.9668Z" fill="white"></path>
<path fill-rule="evenodd" clip-rule="evenodd" d="M122.949 47H116.864L114.446 41.0664H103.259L100.841 47H94.9072L106.245 20.3555H111.611L122.949 47ZM105.338 35.9258H112.367L108.853 27.3477L105.338 35.9258Z" fill="white"></path>
<path d="M149.715 25.9111H141.664V47H135.845V25.9111H127.795V20.5449H149.715V25.9111Z" fill="white"></path>
<path d="M180.192 25.7227H166.02V31.0889H178.491V36.2666H166.02V41.8223H180.381V47H160.237V20.5449H180.192V25.7227Z" fill="white"></path>
<path d="M197.423 41.709H210.612V47H191.603V20.5449H197.423V41.709Z" fill="white"></path>
<path d="M227.134 47H221.313V20.5449H227.134V47Z" fill="white"></path>
<path d="M259.746 25.7227H245.574V31.0889H258.046V36.2666H245.574V41.8223H259.936V47H239.792V20.5449H259.746V25.7227Z" fill="white"></path>
<path fill-rule="evenodd" clip-rule="evenodd" d="M283.251 20.5449C289.487 20.545 293.229 23.8333 293.229 29.2754V29.3506C293.229 33.621 290.923 36.3045 287.56 37.5518L294.021 47H287.219L281.55 38.5342H276.978V47H271.157V20.5449H283.251ZM276.978 33.3945H282.873C285.707 33.3944 287.332 31.8829 287.332 29.6533V29.5771C287.332 27.0831 285.594 25.798 282.76 25.7979H276.978V33.3945Z" fill="white"></path>
</svg>