<svg width="460" height="229" viewBox="0 0 460 229" fill="none" xmlns="http://www.w3.org/2000/svg">
<path d="M139.758 190.905C145.164 190.905 149.775 192.598 153.537 195.613L149.297 201.751C146.012 199.476 142.779 198.101 139.652 198.101C136.526 198.101 134.883 199.529 134.883 201.328V201.434C134.883 203.868 136.473 204.661 142.885 206.301C150.41 208.259 154.65 210.958 154.65 217.412V217.519C154.65 224.873 149.033 229 141.03 229C135.413 229 129.742 227.042 125.291 223.074L130.113 217.307C133.452 220.058 136.949 221.804 141.189 221.804C144.528 221.804 146.542 220.481 146.542 218.312V218.206C146.542 216.143 145.269 215.085 139.069 213.497C131.597 211.593 126.775 209.529 126.775 202.175V202.069C126.775 195.349 132.18 190.905 139.758 190.905Z" fill="white"/>
<path d="M314.981 217.518L324.68 191.433H333.477L318.479 228.735H311.272L296.274 191.433H305.284L314.981 217.518Z" fill="white"/>
<path fill-rule="evenodd" clip-rule="evenodd" d="M398.842 228.472H390.309L386.918 220.165H371.231L367.839 228.472H359.519L375.417 191.17H382.943L398.842 228.472ZM374.146 212.969H384.003L379.074 200.958L374.146 212.969Z" fill="white"/>
<path d="M28.2465 198.841H8.16116V206.725H25.8616V214.132H8.16116V228.471H0V191.433H28.2465V198.841Z" fill="white"/>
<path d="M91.5366 198.682H71.6631V206.196H89.1517V213.444H71.6631V221.222H91.8015V228.471H63.5546V191.433H91.5366V198.682Z" fill="white"/>
<path d="M217.821 198.947H206.533V228.471H198.372V198.947H187.084V191.433H217.821V198.947Z" fill="white"/>
<path d="M261.406 228.471H253.245V191.433H261.406V228.471Z" fill="white"/>
<path d="M441.504 221.063H460V228.471H433.343V191.433H441.504V221.063Z" fill="white"/>
<path d="M18.5208 132.264C20.1933 132.264 21.7036 132.402 23.051 132.69C24.3367 132.95 25.5919 133.345 26.7956 133.869C27.9436 134.37 29.0172 134.985 29.9907 135.712C30.9852 136.443 31.9278 137.243 32.8109 138.107L29.9907 141.154C28.4178 139.687 26.733 138.471 24.9356 137.53C23.139 136.59 20.9794 136.113 18.4706 136.113C16.4492 136.113 14.5771 136.502 12.8426 137.267C11.14 138.019 9.60684 139.111 8.33708 140.477C7.06407 141.844 6.06564 143.449 5.35427 145.292C4.64256 147.136 4.28074 149.105 4.28074 151.211V151.312C4.28078 153.456 4.64252 155.437 5.35427 157.28C6.06562 159.123 7.06411 160.729 8.33708 162.095C9.60966 163.462 11.1081 164.54 12.8426 165.33C14.5647 166.121 16.4492 166.509 18.4706 166.509C20.9793 166.509 23.1509 166.045 24.9607 165.118C26.7701 164.19 28.555 162.885 30.3024 161.205L33.0232 163.889C32.1076 164.85 31.1185 165.739 30.0655 166.547C29.0296 167.337 27.931 168.014 26.7459 168.566C25.5602 169.13 24.2867 169.569 22.9265 169.882C21.5662 170.196 20.0432 170.359 18.3707 170.359L18.3586 170.321C15.7001 170.321 13.2666 169.832 11.0324 168.854C8.7987 167.876 6.86419 166.534 5.22932 164.829C3.59451 163.123 2.30919 161.117 1.38568 158.81C0.461763 156.503 2.29889e-05 154.032 0 151.399V151.299C1.88263e-05 148.703 0.46216 146.258 1.38568 143.938C2.30921 141.618 3.59448 139.599 5.22932 137.869C6.86418 136.138 8.82334 134.771 11.0947 133.768C13.3661 132.765 15.8375 132.264 18.5208 132.264Z" fill="white"/>
<path d="M205.314 170.222H205.302C205.304 170.222 205.306 170.221 205.308 170.221C205.31 170.221 205.312 170.222 205.314 170.222Z" fill="white"/>
<path d="M203.829 132.364C206.512 132.364 208.859 132.741 210.868 133.493C212.878 134.245 214.825 135.374 216.709 136.879L214.3 140.089C212.591 138.685 210.868 137.669 209.146 137.042C207.424 136.415 205.614 136.102 203.73 136.102C201.321 136.102 199.424 136.666 198.026 137.807C196.628 138.948 195.93 140.352 195.93 142.033V142.133C195.93 143.011 196.067 143.788 196.354 144.478C196.628 145.155 197.14 145.794 197.876 146.371C198.613 146.948 199.624 147.475 200.909 147.951C202.194 148.428 203.854 148.867 205.876 149.293C209.957 150.209 212.965 151.462 214.9 153.08C216.834 154.698 217.807 156.905 217.807 159.701V159.801C217.807 161.381 217.496 162.811 216.872 164.09C216.247 165.369 215.386 166.46 214.275 167.375C213.165 168.291 211.854 168.993 210.319 169.482C208.786 169.97 207.115 170.221 205.308 170.221C202.378 170.221 199.709 169.745 197.277 168.78C194.856 167.814 192.547 166.335 190.338 164.341L192.897 161.293C194.819 163.049 196.753 164.353 198.7 165.206C200.659 166.071 202.906 166.497 205.452 166.497C207.998 166.497 209.907 165.908 211.392 164.742C212.878 163.576 213.614 162.071 213.614 160.252V160.152C213.614 159.312 213.477 158.547 213.19 157.87C212.915 157.193 212.428 156.566 211.729 156.002C211.031 155.437 210.057 154.936 208.821 154.472C207.586 154.021 206.001 153.582 204.092 153.155C201.995 152.704 200.173 152.177 198.625 151.575C197.078 150.973 195.792 150.258 194.781 149.418C193.77 148.578 193.022 147.6 192.535 146.472C192.048 145.356 191.798 144.039 191.798 142.521V142.421C191.798 140.979 192.098 139.65 192.684 138.421C193.271 137.192 194.119 136.139 195.192 135.236C196.279 134.345 197.552 133.643 199.012 133.129C200.472 132.615 202.082 132.364 203.829 132.364Z" fill="white"/>
<path d="M51.8929 149.243H73.0342V132.891H77.1658V169.696H73.0342V153.13H51.8929V169.696H47.7618V132.891H51.8929V149.243Z" fill="white"/>
<path d="M121.347 136.678H99.0066V149.243H119V153.03H99.0066V165.908H121.609V169.696H94.8633V132.891H121.347V136.678Z" fill="white"/>
<path d="M162.52 136.729H140.33V149.87H160.161V153.657H140.33V169.696H136.199V132.891H162.52V136.729Z" fill="white"/>
<path d="M282.505 140.353H271.36V169.696H263.298V140.353H252.153V132.891H282.505V140.353Z" fill="white"/>
<path d="M400.458 162.334H418.717V169.696H392.395V132.891H400.458V162.334Z" fill="white"/>
<path fill-rule="evenodd" clip-rule="evenodd" d="M332.215 169.695H323.79L320.445 161.444H304.957L301.613 169.695H293.401L309.101 132.628H316.514L332.215 169.695ZM307.828 154.284H317.563L312.695 142.346L307.828 154.284Z" fill="white"/>
<path fill-rule="evenodd" clip-rule="evenodd" d="M346.243 132.891H363.253C367.434 132.891 370.742 134.045 372.826 136.151C374.498 137.831 375.335 139.888 375.335 142.408V142.508C375.335 146.659 373.138 148.979 370.517 150.446C374.761 152.077 377.368 154.547 377.368 159.488V159.588C377.368 166.321 371.927 169.682 363.653 169.682H346.23V132.878L346.243 132.891ZM354.093 162.597H363.665C367.222 162.597 369.369 161.331 369.369 158.597V158.497C369.369 156.027 367.534 154.497 363.403 154.497H354.093V162.597ZM354.093 147.775H361.519C365.075 147.775 367.322 146.622 367.322 143.888V143.775C367.322 141.355 365.437 139.988 362.043 139.988H354.093V147.775Z" fill="white"/>
<path d="M459.739 140.089H440.122V147.55H457.395V154.748H440.122V162.472H460V169.67H432.11V132.891H459.739V140.089Z" fill="white"/>
<path d="M180.728 137.619C180.728 139.763 180.254 141.381 179.318 142.485C178.382 143.588 176.91 144.365 174.925 144.83L174.301 142.986H174.289C175.612 142.497 176.56 141.895 177.109 141.167C177.671 140.453 177.895 139.525 177.796 138.409H175.911V132.891H180.728V137.619Z" fill="white"/>
<path d="M199.216 81.5114H262.787C254.535 93.4254 240.777 101.243 225.184 101.243C199.94 101.243 179.478 80.7749 179.478 55.5232C179.478 39.9252 187.281 26.1629 199.203 17.9082H199.216V81.5114Z" fill="white"/>
<path d="M280.69 81.5114H262.787C267.893 74.1308 270.889 65.1767 270.889 55.5232C270.889 30.2721 250.427 9.80359 225.184 9.80348C215.533 9.80348 206.581 12.8004 199.203 17.9082V0H280.69V81.5114Z" fill="white"/>
</svg>
