<svg width="251" height="76" viewBox="0 0 251 76" fill="none" xmlns="http://www.w3.org/2000/svg">
<path d="M14.6123 60.7852H61.6895C55.5824 69.6136 45.3975 75.3974 33.8477 75.3975C15.1574 75.3975 0.000158803 60.241 0 41.5508C0 30.0009 5.78386 19.8063 14.6123 13.6992V60.7852Z" fill="white"></path>
<path d="M74.9453 60.7754H61.6895C65.4716 55.3141 67.6943 48.6904 67.6943 41.541C67.6942 22.8509 52.5378 7.69449 33.8477 7.69434C26.6981 7.69434 20.0736 9.91688 14.6123 13.6992V0.443359H74.9453V60.7754Z" fill="white"></path>
<path d="M121.229 38.3584H112.778V60.4902H106.672V38.3584H98.2305V32.7314H121.229V38.3584Z" fill="white"></path>
<path fill-rule="evenodd" clip-rule="evenodd" d="M176.876 32.7227C180.049 32.7227 182.549 33.5989 184.136 35.1855C185.409 36.4585 186.036 37.9988 186.036 39.9082V39.9912C186.036 43.1276 184.376 44.8715 182.393 45.9785C185.603 47.2054 187.586 49.0692 187.586 52.7959V52.8789C187.586 57.9528 183.462 60.4902 177.198 60.4902H163.997V32.7314L163.988 32.7227H176.876ZM176.996 49.0234H169.938V55.1299H177.198C179.892 55.1299 181.516 54.1797 181.516 52.1133V52.0303C181.515 50.167 180.132 49.0138 176.996 49.0137V49.0234ZM169.938 43.9492H175.565C178.259 43.9492 179.966 43.0728 179.966 41.0156V40.9326C179.966 39.106 178.536 38.082 175.962 38.082H169.938V43.9492Z" fill="white"></path>
<path fill-rule="evenodd" clip-rule="evenodd" d="M154.154 60.4805H147.771L145.233 54.2539H133.499L130.962 60.4805H124.735L136.636 32.5283H142.254L154.154 60.4805ZM135.667 48.8662H143.047L139.356 39.8623L135.667 48.8662Z" fill="white"></path>
<path d="M205.077 54.9277H218.915V60.4805H198.97V32.7227H205.077V54.9277Z" fill="white"></path>
<path d="M250.807 38.1562H235.936V43.7832H249.017V49.2168H235.936V55.0469H251V60.4805H229.865V32.7227H250.807V38.1562Z" fill="white"></path>
<path d="M110.703 0C111.874 1.48646e-05 112.926 0.101275 113.857 0.294922C114.798 0.488652 115.666 0.765652 116.469 1.11621C117.271 1.46676 118.01 1.8915 118.692 2.38965C119.375 2.8877 120.03 3.44111 120.666 4.0498L118.692 6.16211C117.595 5.13811 116.423 4.29855 115.168 3.64355C113.913 2.9886 112.41 2.65723 110.666 2.65723C109.255 2.65723 107.944 2.92394 106.745 3.45898C105.537 3.99405 104.494 4.73242 103.608 5.68262C102.723 6.6328 102.031 7.74941 101.533 9.02246C101.035 10.2955 100.786 11.6704 100.786 13.1279V13.2012C100.786 14.6864 101.035 16.0614 101.533 17.3438C102.031 18.6165 102.723 19.7326 103.608 20.6826C104.494 21.6328 105.546 22.3805 106.745 22.9248C107.944 23.4691 109.255 23.7461 110.666 23.7461C112.419 23.7461 113.923 23.4231 115.187 22.7773C116.45 22.1316 117.687 21.2273 118.904 20.0557L120.805 21.9189C120.15 22.6016 119.457 23.2111 118.747 23.7646C118.028 24.3088 117.253 24.7786 116.432 25.166C115.601 25.5535 114.716 25.8587 113.766 26.0801C112.815 26.3015 111.763 26.4121 110.592 26.4121V26.4307C108.747 26.4306 107.04 26.0889 105.481 25.4062C103.922 24.7236 102.576 23.7921 101.432 22.6113C100.288 21.4305 99.3928 20.0368 98.7471 18.4316C98.1014 16.8265 97.7783 15.1107 97.7783 13.2842V13.2109C97.7783 11.412 98.1013 9.7048 98.7471 8.09961C99.3928 6.49448 100.288 5.09225 101.432 3.88379C102.576 2.67532 103.941 1.73387 105.519 1.04199C107.096 0.350214 108.831 0 110.703 0Z" fill="white"></path>
<path d="M239.93 0.101562C241.802 0.101562 243.436 0.359904 244.838 0.885742C246.24 1.41158 247.596 2.19585 248.906 3.23828L247.228 5.46094C246.037 4.49229 244.837 3.78222 243.629 3.34863C242.421 2.91517 241.166 2.69436 239.856 2.69434C238.177 2.69434 236.849 3.09042 235.88 3.88379C234.911 4.67711 234.423 5.6551 234.423 6.81738V6.8916C234.423 7.50025 234.524 8.04429 234.718 8.51465C234.911 8.98511 235.262 9.42853 235.778 9.8252C236.286 10.2219 236.997 10.5907 237.892 10.9229C238.796 11.2549 239.949 11.5593 241.36 11.8545C244.201 12.491 246.305 13.3581 247.651 14.4834C248.998 15.6089 249.681 17.1316 249.681 19.0781V19.1514C249.681 20.2491 249.46 21.2365 249.026 22.1221C248.593 23.0076 247.983 23.7731 247.218 24.4004C246.452 25.0276 245.53 25.5171 244.46 25.8584C243.39 26.1997 242.218 26.3662 240.954 26.3662V26.3564C238.915 26.3564 237.043 26.024 235.354 25.3506C233.666 24.6864 232.052 23.6533 230.521 22.2695L232.31 20.1572C233.647 21.3749 234.994 22.2793 236.359 22.8789C237.725 23.4785 239.293 23.7734 241.064 23.7734C242.836 23.7734 244.174 23.3675 245.207 22.5557C246.24 21.7439 246.757 20.7013 246.757 19.4375V19.3643C246.757 18.7832 246.656 18.2477 246.462 17.7773C246.268 17.3069 245.926 16.8728 245.438 16.4854C244.949 16.098 244.275 15.7476 243.408 15.4248C242.541 15.1112 241.443 14.8069 240.105 14.5117C238.648 14.1981 237.374 13.8282 236.295 13.4131C235.216 12.998 234.321 12.5001 233.61 11.9189C232.9 11.3378 232.383 10.6547 232.042 9.87988C231.701 9.10513 231.535 8.19198 231.535 7.14062V7.06641C231.535 6.0702 231.738 5.1479 232.153 4.29004C232.568 3.43209 233.15 2.70305 233.906 2.08496C234.663 1.46695 235.548 0.977479 236.572 0.626953C237.596 0.276506 238.712 0.10159 239.93 0.101562Z" fill="white"></path>
<path d="M133.969 11.79H148.711V0.443359H151.589V25.9873H148.711V14.4932H133.969V25.9873H131.091V0.443359H133.969V11.79Z" fill="white"></path>
<path d="M182.392 3.07227H166.811V11.79H180.75V14.4189H166.811V23.3584H182.576V25.9873H163.933V0.443359H182.392V3.07227Z" fill="white"></path>
<path d="M211.11 3.10938H195.64V12.2324H209.468V14.8623H195.64V25.9873H192.762V0.443359H211.11V3.10938Z" fill="white"></path>
<path d="M223.813 3.72754C223.813 5.21256 223.481 6.3379 222.826 7.10352C222.171 7.86908 221.147 8.41391 219.764 8.72754L219.33 7.4541H219.321C220.244 7.11285 220.898 6.69764 221.295 6.19043C221.682 5.6923 221.839 5.05557 221.766 4.27148H220.456V0.443359H223.813V3.72754Z" fill="white"></path>
</svg>