<svg width="586" height="100" viewBox="0 0 155 26.4561" fill="none" xmlns="http://www.w3.org/2000/svg">
<g id="ct-alt-hori-logo">
<path d="M5.15625 21.2998H21.7764C19.6193 24.413 16.0232 26.456 11.9473 26.4561C5.34874 26.4561 0 21.1073 0 14.5088C4.21891e-05 10.4329 2.04303 6.83675 5.15625 4.67969V21.2998Z" fill="var(--fill-0, black)"></path>
<path d="M26.4561 0V21.2998H21.7764C23.111 19.3712 23.8945 17.0313 23.8945 14.5088C23.8945 7.91036 18.5457 2.56157 11.9473 2.56152C9.42472 2.56152 7.08488 3.34501 5.15625 4.67969V0H26.4561Z" fill="var(--fill-0, black)"></path>
<path d="M39.5615 7.36914C39.9987 7.36914 40.3937 7.40544 40.7461 7.48047C41.0985 7.55225 41.4254 7.6566 41.7256 7.78711C42.0256 7.9176 42.3061 8.07744 42.5605 8.2666C42.815 8.45254 43.063 8.66131 43.2979 8.88965L42.5605 9.68262C42.1495 9.301 41.709 8.98492 41.2393 8.74023C40.7694 8.49555 40.2046 8.37113 39.5488 8.37109C39.0204 8.37112 38.5306 8.47199 38.0771 8.6709C37.6269 8.86996 37.2312 9.15121 36.8984 9.50684C36.5658 9.86241 36.3051 10.2803 36.1191 10.7598C35.9332 11.2393 35.8379 11.7518 35.8379 12.2998V12.3262C35.8379 12.8841 35.9332 13.4002 36.1191 13.8799C36.3051 14.3593 36.5657 14.7773 36.8984 15.1328C37.2313 15.4885 37.6236 15.769 38.0771 15.9746C38.5273 16.1801 39.0204 16.2812 39.5488 16.2812C40.2044 16.2812 40.7721 16.1602 41.2451 15.9189C41.7182 15.6775 42.1858 15.3385 42.6426 14.9014L43.3535 15.5996C43.1089 15.854 42.8508 16.0855 42.5801 16.291C42.3093 16.4965 42.0218 16.6729 41.7119 16.8164C41.4021 16.9631 41.0693 17.0776 40.7139 17.1592C40.3582 17.2407 39.9596 17.2832 39.5225 17.2832L39.5195 17.2734C38.8245 17.2734 38.1876 17.1461 37.6035 16.8916C37.0194 16.6371 36.5134 16.2875 36.0859 15.8438C35.6586 15.4 35.3225 14.8776 35.0811 14.2773C34.8397 13.677 34.7188 13.0338 34.7188 12.3486V12.3232C34.7188 11.6478 34.8396 11.0109 35.0811 10.4072C35.3225 9.80376 35.6587 9.27834 36.0859 8.82812C36.5134 8.37785 37.0263 8.0218 37.6201 7.76074C38.2139 7.49977 38.8601 7.36918 39.5615 7.36914Z" fill="var(--fill-0, black)"></path>
<path d="M88.0156 7.39551C88.7171 7.39551 89.3311 7.49276 89.8564 7.68848C90.3818 7.88427 90.891 8.17872 91.3838 8.57031L90.7539 9.40527C90.3069 9.03984 89.8565 8.77546 89.4062 8.6123C88.9561 8.44921 88.4828 8.36723 87.9902 8.36719C87.3605 8.36723 86.8635 8.5146 86.498 8.81152C86.133 9.10839 85.9502 9.47411 85.9502 9.91113V9.9375C85.9502 10.1658 85.9865 10.3685 86.0615 10.5479C86.1333 10.7238 86.2668 10.8901 86.459 11.04C86.6514 11.1901 86.9161 11.3272 87.252 11.4512C87.588 11.5751 88.0224 11.6899 88.5508 11.8008C89.6177 12.039 90.4043 12.3653 90.9102 12.7861C91.416 13.2071 91.6709 13.782 91.6709 14.5098V14.5352C91.6709 14.9462 91.5889 15.3186 91.4258 15.6514C91.2626 15.9841 91.0374 16.2687 90.7471 16.5068C90.4568 16.7448 90.114 16.9275 89.7129 17.0547C89.3119 17.1818 88.8749 17.246 88.4023 17.2461C87.6363 17.2459 86.9385 17.1231 86.3027 16.8721C85.6697 16.6208 85.0658 16.2356 84.4883 15.7168L85.1572 14.9238C85.6597 15.3807 86.1658 15.7205 86.6748 15.9424C87.187 16.1675 87.7749 16.2783 88.4404 16.2783C89.1057 16.2783 89.6049 16.1245 89.9932 15.8213C90.3813 15.5179 90.574 15.1262 90.5742 14.6533V14.627C90.5742 14.4085 90.5388 14.2093 90.4639 14.0332C90.3921 13.8571 90.2646 13.6937 90.082 13.5469C89.8993 13.4 89.6443 13.2692 89.3213 13.1484C88.9983 13.031 88.584 12.9166 88.085 12.8057C87.5368 12.6882 87.0599 12.5511 86.6553 12.3945C86.2507 12.2379 85.9147 12.0516 85.6504 11.833C85.3861 11.6144 85.1898 11.3601 85.0625 11.0664C84.9353 10.776 84.8701 10.4328 84.8701 10.0381V10.0127C84.8701 9.63766 84.9484 9.29131 85.1016 8.97168C85.2549 8.65197 85.4773 8.37749 85.7578 8.14258C86.0416 7.91099 86.3743 7.72753 86.7559 7.59375C87.1375 7.46001 87.559 7.39556 88.0156 7.39551Z" fill="var(--fill-0, black)"></path>
<path d="M48.2881 11.7871H53.8164V7.53223H54.8965V17.1104H53.8164V12.7988H48.2881V17.1104H47.208V7.53223H48.2881V11.7871Z" fill="var(--fill-0, black)"></path>
<path d="M66.4453 8.51758H60.6045V11.7871H65.832V12.7734H60.6045V16.125H66.5137V17.1104H59.5205V7.53223H66.4453V8.51758Z" fill="var(--fill-0, black)"></path>
<path d="M77.2148 8.53027H71.4121V11.9512H76.5977V12.9365H71.4121V17.1104H70.332V7.53223H77.2148V8.53027Z" fill="var(--fill-0, black)"></path>
<path d="M108.589 9.47363H105.675V17.1104H103.566V9.47363H100.652V7.53223H108.589V9.47363Z" fill="var(--fill-0, black)"></path>
<path fill-rule="evenodd" clip-rule="evenodd" d="M121.583 17.1104H119.381L118.506 14.9629H114.456L113.582 17.1104H111.435L115.54 7.46387H117.479L121.583 17.1104ZM115.21 13.1025H117.756L116.482 9.99609L115.21 13.1025Z" fill="var(--fill-0, black)"></path>
<path d="M139.428 15.1943H144.202V17.1104H137.319V7.53223H139.428V15.1943Z" fill="var(--fill-0, black)"></path>
<path fill-rule="evenodd" clip-rule="evenodd" d="M125.251 7.53223H129.699C130.792 7.53223 131.657 7.83268 132.202 8.38086C132.639 8.81813 132.858 9.35388 132.858 10.0098V10.0352C132.858 11.1151 132.284 11.7198 131.599 12.1016C132.708 12.5258 133.391 13.1684 133.391 14.4541V14.4805C133.39 16.2324 131.967 17.1074 129.804 17.1074H125.248V7.5293L125.251 7.53223ZM127.308 15.2637H129.811C130.74 15.2636 131.301 14.9335 131.302 14.2227V14.1963C131.302 13.5535 130.822 13.1554 129.742 13.1553H127.308V15.2637ZM127.308 11.4062H129.249C130.179 11.4062 130.766 11.1055 130.767 10.3945V10.3652C130.767 9.73541 130.273 9.37988 129.386 9.37988H127.308V11.4062Z" fill="var(--fill-0, black)"></path>
<path d="M154.932 9.40527H149.802V11.3477H154.318V13.2207H149.802V15.2305H155V17.1035H147.707V7.53223H154.932V9.40527Z" fill="var(--fill-0, black)"></path>
<path d="M81.9756 8.7627C81.9755 9.32049 81.8511 9.74123 81.6064 10.0283C81.3617 10.3153 80.9767 10.518 80.458 10.6387L80.2949 10.1592H80.292C80.6376 10.032 80.8857 9.87467 81.0293 9.68555C81.176 9.49962 81.235 9.25798 81.209 8.96777H80.7158V7.53223H81.9756V8.7627Z" fill="var(--fill-0, black)"></path>
</g>
</svg>